PathFileType	4	(X/Y/Z)	C:\Users\WrightLab\Desktop\Jo\P5V210.trc
DataRate	CameraRate	NumFrames	NumMarkers	Units	OrigDataRate	OrigDataStartFrame	OrigNumFrames
100.00	100.00	       28	19	mm	100.00	90	       716
Frame#	Time	Headset_Front			Headset_Back			Headset_Left			Headset_Right			Left_Shoulder			Right_Shoulder			Sternum			C7			Left Elbow			Right Elbow			Left Wrist			Right Wrist			Left ASIS			Right ASIS			S2			Left Knee			Right Knee			Left Ankle			Right Ankle			
		X1	Y1	Z1	X2	Y2	Z2	X3	Y3	Z3	X4	Y4	Z4	X5	Y5	Z5	X6	Y6	Z6	X7	Y7	Z7	X8	Y8	Z8	X9	Y9	Z9	X10	Y10	Z10	X11	Y11	Z11	X12	Y12	Z12	X13	Y13	Z13	X14	Y14	Z14	X15	Y15	Z15	X16	Y16	Z16	X17	Y17	Z17	X18	Y18	Z18	X19	Y19	Z19	

90	0.890																												-559.63477	1155.08545	-1347.51733				-507.28754	1013.18457	-1163.19226	-106.56448	913.90759	-1291.67444	-382.47119	924.70667	-1255.96240				-77.86389	475.27267	-1348.19958	-452.72595	466.27988	-1311.83203							
91	0.900																												-559.14020	1155.11792	-1347.20300				-506.56961	1013.58514	-1162.72229	-105.51013	913.44928	-1292.72083	-382.24609	924.97382	-1254.95251				-77.04131	474.98410	-1347.15540	-451.51401	466.33713	-1311.42822							
92	0.910																												-558.33466	1155.37549	-1347.70728				-505.88980	1013.90973	-1162.42261	-105.09335	914.03796	-1290.38391	-381.23764	925.13568	-1257.01086				-76.79065	475.33694	-1345.68750	-450.82861	466.10077	-1311.95093							
93	0.920																												-557.31354	1155.61389	-1348.74255				-504.75452	1013.64038	-1161.97400	-101.89436	914.81873	-1278.38220	-380.28583	925.01245	-1255.55212				-76.53250	475.62576	-1344.16602	-450.24182	466.38724	-1311.90527							
94	0.930																												-556.80829	1155.06177	-1347.28357				-503.70563	1013.34161	-1161.56421	-102.81291	914.17456	-1280.96167	-379.64297	925.73035	-1252.65564				-76.43150	475.57025	-1343.54883	-450.04327	466.25040	-1311.85205							
95	0.940																												-556.19800	1155.03455	-1346.73035				-503.43848	1013.59363	-1161.12854	-100.37600	913.09369	-1291.78247	-378.51526	925.58765	-1252.12085				-76.29371	475.55530	-1342.71350	-448.91708	466.60437	-1311.80090							
96	0.950																												-555.53564	1155.00085	-1345.92017				-502.01733	1013.53290	-1161.12280	-99.96593	913.73175	-1289.47888	-377.61911	925.23730	-1252.06653				-76.22199	475.48975	-1342.27063	-448.48285	466.80609	-1312.68640							
97	0.960																												-554.67200	1154.54138	-1344.52258				-500.99466	1014.26300	-1160.07495	-98.89797	913.37024	-1290.45789	-377.13220	925.76917	-1249.86755				-75.84539	474.40915	-1343.09631	-448.43259	467.07416	-1312.72400							
98	0.970																												-553.76282	1155.07849	-1345.29944				-500.15060	1013.95862	-1160.14685	-98.66812	913.73212	-1289.16565	-376.78174	926.16248	-1248.28662				-76.27193	474.60175	-1340.78674	-448.01514	467.19962	-1312.82507							
99	0.980																												-552.85040	1154.32922	-1343.77173				-499.83557	1014.13885	-1160.21899	-98.42867	914.04407	-1287.81299	-376.59976	926.36401	-1247.46521				-76.62940	474.74289	-1338.53552	-447.87259	466.81735	-1313.15759							
100	0.990																												-552.40216	1154.37695	-1343.32849				-499.35703	1014.24207	-1160.00000	-97.42048	913.52032	-1289.12061	-376.40762	926.59296	-1246.60083				-76.09045	474.70114	-1339.70129	-447.59082	467.20093	-1313.39404							
101	1.000																												-551.91406	1154.84644	-1344.04700				-498.34680	1013.76257	-1159.26685	-96.72437	912.89124	-1289.28284	-375.70593	925.99670	-1248.64185				-75.46181	474.66772	-1340.80627	-446.93311	467.02386	-1313.82495							
102	1.010																												-551.33197	1155.38391	-1344.90063				-497.85489	1013.76813	-1159.10669	-96.45383	913.22974	-1287.75073	-375.10220	925.16211	-1250.96777				-75.27995	475.00204	-1339.74988	-446.94290	467.01224	-1314.02393							
103	1.020																												-550.42780	1154.52576	-1343.35364				-496.82217	1013.58398	-1158.37012	-96.07773	913.78345	-1285.62866	-375.05029	925.18225	-1250.72656				-74.48975	474.74078	-1339.84094	-445.72180	466.60019	-1314.44727							
104	1.030																												-549.82269	1154.95093	-1343.97668				-496.47577	1013.48877	-1158.28723	-94.62177	912.98859	-1288.12439	-374.49185	924.85876	-1252.78943				-71.81441	472.88608	-1343.85278	-445.27615	467.18790	-1313.87573							
105	1.040																												-549.42230	1155.01501	-1343.52771				-494.97211	1013.30353	-1158.19006	-93.63914	913.10101	-1288.78113	-374.13235	925.32324	-1253.20996				-70.97761	474.56656	-1338.99304	-444.72208	466.84509	-1313.60339							
106	1.050																												-548.97534	1155.05823	-1342.98413				-493.87000	1013.48621	-1157.73828	-93.32684	913.54523	-1287.01270	-373.60318	924.72058	-1253.65417				-69.74808	475.13147	-1335.57935	-442.98492	466.30383	-1313.33313							
107	1.060																												-548.50787	1155.11377	-1342.33203				-493.17731	1013.69507	-1157.83374	-93.07359	913.98889	-1285.58704	-373.29861	925.07538	-1252.27820				-69.29251	475.91479	-1332.91431	-441.80530	466.88583	-1312.89746							
108	1.070																												-547.94855	1155.16028	-1341.43298				-493.06155	1013.65503	-1157.80505	-92.13325	913.42023	-1287.28638	-371.69507	924.09723	-1253.58521				-69.13667	476.04080	-1331.98303	-440.69238	466.40094	-1312.60486							
109	1.080																												-547.26385	1154.74316	-1340.16235				-492.41190	1013.08734	-1157.75110	-91.93846	913.76697	-1286.18896	-370.91135	924.99347	-1250.03650				-67.46169	475.20685	-1335.99670	-439.03760	466.42725	-1312.37769							
110	1.090																												-546.59802	1155.30896	-1340.96680				-492.17743	1013.28387	-1156.60425	-91.71667	914.09534	-1284.93298	-370.15512	925.80957	-1246.60364				-66.36613	474.00626	-1337.36963	-439.10904	466.81458	-1311.28601							
111	1.100																												-546.00964	1155.12769	-1340.06091				-491.38846	1012.67267	-1156.51587	-91.52705	914.44281	-1283.86560	-369.42746	926.63745	-1243.30774				-64.99818	472.77832	-1339.30884	-438.39355	466.46915	-1311.22754							
112	1.110																												-545.24713	1154.53833	-1338.76941				-490.90192	1012.68292	-1155.99768	-90.60339	913.87036	-1285.66077	-367.94119	925.42053	-1246.86755				-64.45299	473.77737	-1336.11157	-437.48318	466.77664	-1311.11475							
113	1.120																												-544.80023	1154.19348	-1337.72241				-490.48254	1012.70764	-1155.73547	-90.48428	914.03992	-1284.98499	-367.70377	925.69415	-1245.79089				-63.40219	474.17493	-1333.60803	-437.31937	467.48322	-1310.06177							
114	1.130																												-544.41650	1154.26367	-1337.30945				-488.78622	1012.46509	-1155.92188	-89.81023	913.41010	-1285.27307	-367.59485	925.76904	-1245.28809				-62.66818	474.65485	-1329.81677	-435.68784	466.60654	-1310.46594							
115	1.140																												-544.04736	1154.29980	-1336.93335				-487.08578	1011.68274	-1155.40466	-87.80626	915.02167	-1274.27271	-367.02478	924.67535	-1247.45691				-62.08820	474.88110	-1326.93274	-435.40353	466.75269	-1310.06311							
116	1.150																												-543.11499	1154.29932	-1337.15369				-486.69455	1011.77551	-1154.56628	-87.56392	914.12921	-1274.79736	-366.61084	923.80200	-1249.05408				-61.41232	474.51971	-1326.61292	-434.08606	466.89157	-1310.39990							
117	1.160																												-542.70850	1154.34534	-1336.82678				-486.45215	1011.82666	-1154.41150	-86.22452	912.34698	-1288.95935	-366.48584	923.99933	-1248.49561				-61.21683	474.81216	-1325.45679	-433.75150	466.97876	-1310.04175							
